<svg id="visual" viewBox="0 0 900 600" width="900" height="600" xmlns="http://www.w3.org/2000/svg" xmlns:xlink="http://www.w3.org/1999/xlink" version="1.1"><rect x="0" y="0" width="900" height="600" fill="#105093"></rect><defs><linearGradient id="grad1_0" x1="33.3%" y1="100%" x2="100%" y2="0%"><stop offset="20%" stop-color="#105093" stop-opacity="1"></stop><stop offset="80%" stop-color="#105093" stop-opacity="1"></stop></linearGradient></defs><defs><linearGradient id="grad2_0" x1="0%" y1="100%" x2="66.7%" y2="0%"><stop offset="20%" stop-color="#105093" stop-opacity="1"></stop><stop offset="80%" stop-color="#105093" stop-opacity="1"></stop></linearGradient></defs><g transform="translate(900, 600)"><path d="M-351.5 0C-325.2 -51.2 -298.8 -102.4 -272.8 -157.5C-246.8 -212.6 -221.2 -271.5 -175.8 -304.4C-130.4 -337.4 -65.2 -344.5 0 -351.5L0 0Z" fill="#166cc6"></path></g><g transform="translate(0, 0)"><path d="M351.5 0C327 52.3 302.5 104.6 276.3 159.5C250 214.4 222.1 272 175.8 304.4C129.4 336.9 64.7 344.2 0 351.5L0 0Z" fill="#0a3460"></path></g></svg>