<svg xmlns="http://www.w3.org/2000/svg" viewBox="0 -0.5 16 16" shape-rendering="crispEdges">
<metadata>Made with Pixels to Svg https://codepen.io/shshaw/pen/XbxvNj</metadata>
<path stroke="#e8e188" d="M0 0h11M0 1h11M0 2h11M0 3h12M0 4h9M10 4h3M0 5h16M0 6h13M14 6h2M0 7h16M0 8h16M0 9h16M0 10h3M4 10h12M0 11h16M0 12h1M2 12h4M7 12h9M0 13h16M0 14h5M6 14h10M0 15h16" />
<path stroke="#d9c188" d="M11 0h1M11 1h1M11 2h1M12 3h1M13 4h3M13 6h1M3 10h1M1 12h1" />
<path stroke="#b9e1a1" d="M12 0h3M12 1h4M12 2h4M13 3h3" />
<path stroke="#70c9a1" d="M15 0h1" />
<path stroke="#d1b967" d="M9 4h1M6 12h1M5 14h1" />
</svg>