<svg xmlns="http://www.w3.org/2000/svg" viewBox="0 -0.5 16 16" shape-rendering="crispEdges">
<metadata>Made with Pixels to Svg https://codepen.io/shshaw/pen/XbxvNj</metadata>
<path stroke="#e8e188" d="M0 0h16M0 1h16M0 2h11M12 2h4M0 3h16M0 4h9M10 4h4M15 4h1M0 5h16M0 6h13M14 6h2M0 7h16M0 8h16M0 9h13M14 9h2M0 10h3M4 10h12M0 11h9M10 11h3M0 12h1M2 12h4M7 12h5M0 13h11M0 14h5M6 14h5M0 15h11" />
<path stroke="#d9c188" d="M11 2h1M9 4h1M13 9h1M3 10h1M13 11h3M1 12h1M12 12h1M11 13h1M11 14h1M11 15h1" />
<path stroke="#d1b967" d="M14 4h1M13 6h1M9 11h1M6 12h1M5 14h1" />
<path stroke="#b9e1a1" d="M13 12h3M12 13h4M12 14h4M12 15h3" />
<path stroke="#70c9a1" d="M15 15h1" />
</svg>