<svg xmlns="http://www.w3.org/2000/svg" viewBox="0 -0.5 16 16" shape-rendering="crispEdges">
<metadata>Made with Pixels to Svg https://codepen.io/shshaw/pen/XbxvNj</metadata>
<path stroke="#70c9a1" d="M0 0h1" />
<path stroke="#b9e1a1" d="M1 0h3M0 1h4M0 2h4M0 3h3" />
<path stroke="#d9c188" d="M4 0h1M4 1h1M4 2h1M11 2h1M3 3h1M0 4h3M9 4h1M2 6h1M3 10h1M1 12h1" />
<path stroke="#e8e188" d="M5 0h11M5 1h11M5 2h6M12 2h4M4 3h12M3 4h3M7 4h2M10 4h4M15 4h1M0 5h16M0 6h2M3 6h10M14 6h2M0 7h16M0 8h16M0 9h16M0 10h3M4 10h12M0 11h16M0 12h1M2 12h4M7 12h9M0 13h16M0 14h5M6 14h10M0 15h16" />
<path stroke="#d1b967" d="M6 4h1M14 4h1M13 6h1M6 12h1M5 14h1" />
</svg>