<svg xmlns="http://www.w3.org/2000/svg" viewBox="0 -0.5 16 16" shape-rendering="crispEdges">
<metadata>Made with Pixels to Svg https://codepen.io/shshaw/pen/XbxvNj</metadata>
<path stroke="#e8e188" d="M0 0h16M0 1h16M0 2h11M12 2h4M0 3h16M0 4h9M10 4h4M15 4h1M0 5h16M0 6h13M14 6h2M0 7h16M0 8h16M0 9h2M3 9h13M0 10h16M3 11h3M7 11h9M4 12h12M5 13h11M5 14h11M5 15h11" />
<path stroke="#d9c188" d="M11 2h1M9 4h1M2 9h1M0 11h3M3 12h1M4 13h1M4 14h1M4 15h1" />
<path stroke="#d1b967" d="M14 4h1M13 6h1M6 11h1" />
<path stroke="#b9e1a1" d="M0 12h3M0 13h4M0 14h4M1 15h3" />
<path stroke="#70c9a1" d="M0 15h1" />
</svg>