<svg xmlns="http://www.w3.org/2000/svg" viewBox="0 -0.5 16 16" shape-rendering="crispEdges">
<metadata>Made with Pixels to Svg https://codepen.io/shshaw/pen/XbxvNj</metadata>
<path stroke="#70c9a1" d="M0 0h16M2 1h4M8 1h8M10 2h6M12 3h4M13 4h3M13 5h3M14 6h2M15 7h1M15 8h1M15 9h1M14 10h2M14 11h2M14 12h2M14 13h2M15 14h1M15 15h1" />
<path stroke="#b9e1a1" d="M0 1h2M6 1h2M0 2h10M0 3h12M0 4h13M1 5h2M5 5h2M8 5h5M10 6h4M10 7h5M11 8h4M11 9h4M10 10h4M10 11h4M10 12h4M10 13h4M11 14h4M11 15h4" />
<path stroke="#d9c188" d="M0 5h1M3 5h2M7 5h1M1 6h2M5 6h2M9 6h1M10 8h1M10 9h1M9 10h1M9 11h1M9 12h1M9 13h1M10 14h1M10 15h1" />
<path stroke="#e8e188" d="M0 6h1M3 6h2M7 6h2M0 7h10M0 8h10M0 9h10M0 10h9M0 11h9M0 12h9M0 13h9M0 14h10M0 15h10" />
</svg>