<svg xmlns="http://www.w3.org/2000/svg" viewBox="0 -0.5 16 16" shape-rendering="crispEdges">
<metadata>Made with Pixels to Svg https://codepen.io/shshaw/pen/XbxvNj</metadata>
<path stroke="#70c9a1" d="M0 0h16M0 1h8M10 1h4M0 2h6M0 3h4M0 4h3M0 5h3M0 6h2M0 7h1M0 8h1M0 9h1M0 10h2M0 11h2M0 12h2M0 13h2M0 14h1M0 15h1" />
<path stroke="#b9e1a1" d="M8 1h2M14 1h2M6 2h10M4 3h12M3 4h13M3 5h5M10 5h4M2 6h4M1 7h5M1 8h4M1 9h5M2 10h4M2 11h3M2 12h3M2 13h4M1 14h5M1 15h4" />
<path stroke="#d9c188" d="M8 5h2M14 5h2M6 6h1M10 6h4M5 8h1M6 9h1M6 10h1M5 11h1M5 12h1M6 13h1M6 14h1M5 15h1" />
<path stroke="#e8e188" d="M7 6h3M14 6h2M6 7h10M6 8h10M7 9h9M7 10h9M6 11h10M6 12h10M7 13h9M7 14h9M6 15h10" />
</svg>