<svg xmlns="http://www.w3.org/2000/svg" viewBox="0 -0.5 16 16" shape-rendering="crispEdges">
<metadata>Made with Pixels to Svg https://codepen.io/shshaw/pen/XbxvNj</metadata>
<path stroke="#70c9a1" d="M0 0h16M2 1h4M10 1h4" />
<path stroke="#b9e1a1" d="M0 1h2M6 1h4M14 1h2M0 2h16M0 3h16M0 4h16M1 5h2M5 5h2M10 5h4" />
<path stroke="#d9c188" d="M0 5h1M3 5h2M7 5h3M14 5h2M1 6h2M5 6h2M10 6h4M3 10h1M1 12h1" />
<path stroke="#e8e188" d="M0 6h1M3 6h2M7 6h3M14 6h2M0 7h16M0 8h16M0 9h16M0 10h3M4 10h12M0 11h16M0 12h1M2 12h4M7 12h9M0 13h16M0 14h5M6 14h10M0 15h16" />
<path stroke="#d1b967" d="M6 12h1M5 14h1" />
</svg>