<svg xmlns="http://www.w3.org/2000/svg" viewBox="0 -0.5 16 16" shape-rendering="crispEdges">
<metadata>Made with Pixels to Svg https://codepen.io/shshaw/pen/XbxvNj</metadata>
<path stroke="#70c9a1" d="M0 0h1M0 1h1M0 2h2M0 3h2M0 4h2M0 5h2M0 6h1M0 7h1M0 8h1M0 9h2M0 10h3M0 11h3M0 12h4M0 13h6M0 14h8M10 14h4M0 15h16" />
<path stroke="#b9e1a1" d="M1 0h4M1 1h4M2 2h4M2 3h4M2 4h4M2 5h4M1 6h4M1 7h4M1 8h5M2 9h4M3 10h5M9 10h2M13 10h2M3 11h13M4 12h12M6 13h10M8 14h2M14 14h2" />
<path stroke="#d9c188" d="M5 0h1M5 1h1M6 2h1M6 3h1M6 4h1M6 5h1M5 6h1M5 7h1M6 9h1M9 9h2M13 9h2M8 10h1M11 10h2M15 10h1" />
<path stroke="#e8e188" d="M6 0h10M6 1h10M7 2h9M7 3h9M7 4h9M7 5h9M6 6h10M6 7h10M6 8h10M7 9h2M11 9h2M15 9h1" />
</svg>