<svg xmlns="http://www.w3.org/2000/svg" viewBox="0 -0.5 16 16" shape-rendering="crispEdges">
<metadata>Made with Pixels to Svg https://codepen.io/shshaw/pen/XbxvNj</metadata>
<path stroke="#70c9a1" d="M0 0h16M0 1h16M0 2h16M0 3h5M6 3h10M0 4h2M3 4h2M6 4h2M9 4h7M0 5h3M4 5h3M8 5h8M0 6h16M0 7h16M0 8h16M0 9h11M12 9h4M0 10h8M9 10h2M12 10h2M15 10h1M0 11h9M10 11h3M14 11h2M0 12h16M0 13h16M0 14h16M0 15h16" />
<path stroke="#3db188" d="M5 3h1M2 4h1M5 4h1M8 4h1M3 5h1M7 5h1" />
<path stroke="#a1e1c1" d="M11 9h1M8 10h1M11 10h1M14 10h1M9 11h1M13 11h1" />
</svg>