<svg xmlns="http://www.w3.org/2000/svg" viewBox="0 -0.5 16 16" shape-rendering="crispEdges">
<metadata>Made with Pixels to Svg https://codepen.io/shshaw/pen/XbxvNj</metadata>
<path stroke="#e8e188" d="M0 0h10M0 1h9M0 2h9M0 3h10M0 4h10M0 5h9M0 6h9M0 7h10M0 8h10M0 9h10M0 10h3M4 10h5M0 11h9M0 12h1M2 12h4M7 12h2M0 13h9M0 14h5M6 14h4M0 15h10" />
<path stroke="#d9c188" d="M10 0h1M9 1h1M9 2h1M10 3h1M10 4h1M9 5h1M9 6h1M10 7h1M10 8h1M10 9h1M3 10h1M9 10h1M9 11h1M1 12h1M9 12h1M9 13h1M10 14h1M10 15h1" />
<path stroke="#b9e1a1" d="M11 0h4M10 1h5M10 2h4M11 3h3M11 4h3M10 5h4M10 6h5M11 7h4M11 8h4M11 9h4M10 10h4M10 11h4M10 12h4M10 13h4M11 14h4M11 15h4" />
<path stroke="#70c9a1" d="M15 0h1M15 1h1M14 2h2M14 3h2M14 4h2M14 5h2M15 6h1M15 7h1M15 8h1M15 9h1M14 10h2M14 11h2M14 12h2M14 13h2M15 14h1M15 15h1" />
<path stroke="#d1b967" d="M6 12h1M5 14h1" />
</svg>