<svg xmlns="http://www.w3.org/2000/svg" viewBox="0 -0.5 16 17" shape-rendering="crispEdges">
<metadata>Made with Pixels to Svg https://codepen.io/shshaw/pen/XbxvNj</metadata>
<path stroke="#70c9a1" d="M0 0h1M0 1h1M0 2h2M0 3h2M0 4h2M0 5h2M0 6h1M0 7h1M0 8h1M0 9h1M0 10h2M0 11h2M0 12h2M0 13h2M0 14h1M0 15h1" />
<path stroke="#b9e1a1" d="M1 0h4M1 1h4M2 2h4M2 3h4M2 4h4M2 5h4M1 6h4M1 7h4M1 8h4M1 9h5M2 10h4M2 11h3M2 12h3M2 13h4M1 14h5M1 15h4" />
<path stroke="#d9c188" d="M5 0h1M5 1h1M6 2h1M11 2h1M6 3h1M6 4h1M9 4h1M6 5h1M5 6h1M5 7h1M5 8h1M6 9h1M6 10h1M5 11h1M5 12h1M6 13h1M6 14h1M5 15h1" />
<path stroke="#e8e188" d="M6 0h10M6 1h10M7 2h4M12 2h4M7 3h9M7 4h2M10 4h4M15 4h1M7 5h9M6 6h7M14 6h2M6 7h10M6 8h10M7 9h9M7 10h9M6 11h10M6 12h10M7 13h9M7 14h9M6 15h10" />
<path stroke="#d1b967" d="M14 4h1M13 6h1" />
</svg>