<svg xmlns="http://www.w3.org/2000/svg" viewBox="0 -0.5 16 16" shape-rendering="crispEdges">
<metadata>Made with Pixels to Svg https://codepen.io/shshaw/pen/XbxvNj</metadata>
<path stroke="#e8e188" d="M0 0h16M0 1h16M0 2h11M12 2h4M0 3h16M0 4h9M10 4h4M15 4h1M0 5h16M0 6h13M14 6h2M0 7h16M0 8h16M0 9h2M6 9h3M11 9h2M15 9h1" />
<path stroke="#d9c188" d="M11 2h1M9 4h1M2 9h4M9 9h2M13 9h2M0 10h2M6 10h3M11 10h2M15 10h1" />
<path stroke="#d1b967" d="M14 4h1M13 6h1" />
<path stroke="#b9e1a1" d="M2 10h4M9 10h2M13 10h2M0 11h16M0 12h16M0 13h16M0 14h2M6 14h4M14 14h2" />
<path stroke="#70c9a1" d="M2 14h4M10 14h4M0 15h16" />
</svg>