<svg xmlns="http://www.w3.org/2000/svg" viewBox="0 -0.5 64 32" shape-rendering="crispEdges">
<metadata>Made with Pixels to Svg https://codepen.io/shshaw/pen/XbxvNj</metadata>
<path stroke="#303030" d="M34 10h1M36 10h1M33 11h1M35 11h1M37 11h1M32 12h2M37 12h1M30 13h2M38 13h2M29 14h1M40 14h1M25 15h1M28 15h1M41 15h1M24 16h1M26 16h2M41 16h1M24 17h1M41 17h1M24 18h1M41 18h1M23 19h1M40 19h1M23 20h1M39 20h1M22 21h1M39 21h1M22 22h1M30 22h1M40 22h1M23 23h1M28 23h2M40 23h1M23 24h1M28 24h1M40 24h1M24 25h2M39 25h1M26 26h6M37 26h2M31 27h1M36 27h1M32 28h4" />
<path stroke="#78c878" d="M34 11h1M36 11h1M35 12h1M25 16h1M25 17h3M25 18h2M24 19h3M30 19h1M25 20h9M25 21h3M29 21h4M23 22h4M28 22h1M32 22h1M24 23h4M25 24h3" />
<path stroke="#68a850" d="M34 12h1M36 12h1M32 13h1M35 13h1M37 13h1M30 14h2M33 14h1M35 14h1M37 14h2M30 15h1M32 15h2M35 15h2M38 15h2M32 16h1M34 16h4M39 16h1M34 17h4" />
<path stroke="#407038" d="M33 13h2M36 13h1M32 14h1M34 14h1M36 14h1M39 14h1M31 15h1M34 15h1M37 15h1M40 15h1M30 16h1M33 16h1M38 16h1M33 17h1M38 17h1M28 18h2M33 18h1M38 18h1M27 19h3M38 19h1M37 20h1M24 21h1M27 22h1M38 22h2M38 23h2M34 24h2M34 25h2" />
<path stroke="#508850" d="M29 15h1M29 16h1M31 16h1M40 16h1M31 17h2M39 17h2M32 18h1M34 18h4M39 18h2M35 19h3M39 19h1M35 20h2" />
<path stroke="#505050" d="M28 16h1M29 17h2M31 18h1M32 19h3M34 20h1M38 20h1M33 21h1M35 21h3M29 22h1M31 22h1M35 23h1M36 24h1M32 25h1M36 25h1M36 26h1M35 27h1" />
<path stroke="#609860" d="M28 17h1M27 18h1M30 18h1M31 19h1M24 20h1M28 21h1M34 21h1M38 21h1M33 22h5M32 23h3M36 23h2M24 24h1M31 24h3M37 24h3M26 25h6M33 25h1M37 25h1M32 26h4M33 27h1" />
<path stroke="#b84840" d="M23 21h1" />
<path stroke="#f8f8f8" d="M30 23h2M30 24h1M32 27h1M34 27h1" />
<path stroke="#e04840" d="M29 24h1" />
<path stroke="#b8b8b8" d="M38 25h1" />
</svg>