<svg id="visual" viewBox="0 0 900 600" width="900" height="600" xmlns="http://www.w3.org/2000/svg" xmlns:xlink="http://www.w3.org/1999/xlink" version="1.1"><rect x="0" y="0" width="900" height="600" fill="#105093"></rect><defs><linearGradient id="grad1_0" x1="33.3%" y1="100%" x2="100%" y2="0%"><stop offset="20%" stop-color="#105093" stop-opacity="1"></stop><stop offset="80%" stop-color="#105093" stop-opacity="1"></stop></linearGradient></defs><defs><linearGradient id="grad2_0" x1="0%" y1="100%" x2="66.7%" y2="0%"><stop offset="20%" stop-color="#105093" stop-opacity="1"></stop><stop offset="80%" stop-color="#105093" stop-opacity="1"></stop></linearGradient></defs><g transform="translate(900, 600)"><path d="M-486.7 0C-479 -64.4 -471.2 -128.8 -446.2 -184.8C-421.3 -240.9 -379.2 -288.5 -334.5 -334.5C-289.8 -380.4 -242.4 -424.6 -186.3 -449.7C-130.1 -474.8 -65 -480.8 0 -486.7L0 0Z" fill="#166cc6"></path></g><g transform="translate(0, 0)"><path d="M486.7 0C471.6 61.4 456.5 122.9 432.4 179.1C408.2 235.3 375 286.4 333.8 333.8C292.5 381.1 243.2 424.8 186.3 449.7C129.3 474.6 64.7 480.7 0 486.7L0 0Z" fill="#0a3460"></path></g></svg>