<svg id="visual" viewBox="0 0 900 600" width="900" height="600" xmlns="http://www.w3.org/2000/svg" xmlns:xlink="http://www.w3.org/1999/xlink" version="1.1"><rect x="0" y="0" width="900" height="600" fill="#FF0066"></rect><g transform="translate(434.4493689546417 364.74474637877984)"><path d="M222.2 -280.5C293.5 -254 360.7 -196.5 355.5 -134.1C350.3 -71.6 272.6 -4.1 214.6 37.4C156.6 78.9 118.3 94.5 85.8 116.7C53.3 139 26.6 168 0.1 167.9C-26.5 167.7 -52.9 138.5 -87.3 116.8C-121.7 95.2 -164 81.1 -219.4 40.6C-274.9 0.1 -343.3 -66.9 -320 -93.2C-296.6 -119.5 -181.4 -105.3 -112.7 -132.6C-44.1 -160 -22 -229 26.7 -265.7C75.4 -302.5 150.9 -307 222.2 -280.5" fill="#ff408d"></path></g></svg>