<svg xmlns="http://www.w3.org/2000/svg" viewBox="0 -0.5 800 800" shape-rendering="crispEdges">
<metadata>Made with Pixels to Svg https://codepen.io/shshaw/pen/XbxvNj</metadata>
<path stroke="#333435" d="M439 200h20M439 201h20M439 202h20M439 203h20M439 204h20M439 205h20M439 206h20M439 207h20M439 208h20M439 209h20M439 210h20M439 211h20M439 212h20M439 213h20M439 214h20M439 215h20M439 216h20M439 217h20M439 218h20M419 219h20M419 220h20M419 221h20M419 222h20M419 223h20M419 224h20M419 225h20M419 226h20M419 227h20M419 228h20M419 229h20M419 230h20M419 231h20M419 232h20M419 233h20M419 234h20M419 235h20M419 236h20M419 237h20M419 238h20M399 239h20M399 240h20M399 241h20M399 242h20M399 243h20M399 244h20M399 245h20M399 246h20M399 247h20M399 248h20M399 249h20M399 250h20M399 251h20M399 252h20M399 253h20M399 254h20M399 255h20M399 256h20M399 257h20M399 258h20M359 259h20M359 260h20M359 261h20M359 262h20M359 263h20M359 264h20M359 265h20M359 266h20M359 267h20M359 268h20M359 269h20M359 270h20M359 271h20M359 272h20M359 273h20M359 274h20M359 275h20M359 276h20M359 277h20M359 278h20M259 299h20M259 300h20M259 301h20M259 302h20M259 303h20M259 304h20M259 305h20M259 306h20M259 307h20M259 308h20M259 309h20M259 310h20M259 311h20M259 312h20M259 313h20M259 314h20M259 315h20M259 316h20M259 317h20M259 318h20M239 319h20M239 320h20M239 321h20M239 322h20M239 323h20M239 324h20M239 325h20M239 326h20M239 327h20M239 328h20M239 329h20M239 330h20M239 331h20M239 332h20M239 333h20M239 334h20M239 335h20M239 336h20M239 337h20M239 338h20M239 339h20M239 340h20M239 341h20M239 342h20M239 343h20M239 344h20M239 345h20M239 346h20M239 347h20M239 348h20M239 349h20M239 350h20M239 351h20M239 352h20M239 353h20M239 354h20M239 355h20M239 356h20M239 357h20M239 358h20M239 359h20M239 360h20M239 361h20M239 362h20M239 363h20M239 364h20M239 365h20M239 366h20M239 367h20M239 368h20M239 369h20M239 370h20M239 371h20M239 372h20M239 373h20M239 374h20M239 375h20M239 376h20M239 377h20M239 378h20M219 379h20M219 380h20M219 381h20M219 382h20M219 383h20M219 384h20M219 385h20M219 386h20M219 387h20M219 388h20M219 389h20M219 390h20M219 391h20M219 392h20M219 393h20M219 394h20M219 395h20M219 396h20M219 397h20M219 398h20M219 399h20M219 400h20M219 401h20M219 402h20M219 403h20M219 404h20M219 405h20M219 406h20M219 407h20M219 408h20M219 409h20M219 410h20M219 411h20M219 412h20M219 413h20M219 414h20M219 415h20M219 416h20M219 417h20M219 418h20M200 419h19M200 420h19M200 421h19M200 422h19M200 423h19M200 424h19M200 425h19M200 426h19M200 427h19M200 428h19M200 429h19M200 430h19M200 431h19M200 432h19M200 433h19M200 434h19M200 435h19M200 436h19M200 437h19M200 438h19M219 459h20M219 460h20M219 461h20M219 462h20M219 463h20M219 464h20M219 465h20M219 466h20M219 467h20M219 468h20M219 469h20M219 470h20M219 471h20M219 472h20M219 473h20M219 474h20M219 475h20M219 476h20M219 477h20M219 478h20M219 479h20M219 480h20M219 481h20M219 482h20M219 483h20M219 484h20M219 485h20M219 486h20M219 487h20M219 488h20M219 489h20M219 490h20M219 491h20M219 492h20M219 493h20M219 494h20M219 495h20M219 496h20M219 497h20M219 498h20M239 499h20M239 500h20M239 501h20M239 502h20M239 503h20M239 504h20M239 505h20M239 506h20M239 507h20M239 508h20M239 509h20M239 510h20M239 511h20M239 512h20M239 513h20M239 514h20M239 515h20M239 516h20M239 517h20M239 518h20M279 519h20M279 520h20M279 521h20M279 522h20M279 523h20M279 524h20M279 525h20M279 526h20M279 527h20M279 528h20M279 529h20M279 530h20M279 531h20M279 532h20M279 533h20M279 534h20M279 535h20M279 536h20M279 537h20M279 538h20M379 539h20M379 540h20M379 541h20M379 542h20M379 543h20M379 544h20M379 545h20M379 546h20M379 547h20M379 548h20M379 549h20M379 550h20M379 551h20M379 552h20M379 553h20M379 554h20M379 555h20M379 556h20M379 557h20M379 558h20M399 559h20M399 560h20M399 561h20M399 562h20M399 563h20M399 564h20M399 565h20M399 566h20M399 567h20M399 568h20M399 569h20M399 570h20M399 571h20M399 572h20M399 573h20M399 574h20M399 575h20M399 576h20M399 577h20M399 578h20M399 579h20" />
<path stroke="#323334" d="M479 200h20M479 201h20M479 202h20M479 203h20M479 204h20M479 205h20M479 206h20M479 207h20M479 208h20M479 209h20M479 210h20M479 211h20M479 212h20M479 213h20M479 214h20M479 215h20M479 216h20M479 217h20M479 218h20M339 279h20M339 280h20M339 281h20M339 282h20M339 283h20M339 284h20M339 285h20M339 286h20M339 287h20M339 288h20M339 289h20M339 290h20M339 291h20M339 292h20M339 293h20M339 294h20M339 295h20M339 296h20M339 297h20M339 298h20M319 299h20M319 300h20M319 301h20M319 302h20M319 303h20M319 304h20M319 305h20M319 306h20M319 307h20M319 308h20M319 309h20M319 310h20M319 311h20M319 312h20M319 313h20M319 314h20M319 315h20M319 316h20M319 317h20M319 318h20M200 439h19M200 440h19M200 441h19M200 442h19M200 443h19M200 444h19M200 445h19M200 446h19M200 447h19M200 448h19M200 449h19M200 450h19M200 451h19M200 452h19M200 453h19M200 454h19M200 455h19M200 456h19M200 457h19M200 458h19" />
<path stroke="#79cb79" d="M439 219h20M479 219h20M439 220h20M479 220h20M439 221h20M479 221h20M439 222h20M479 222h20M439 223h20M479 223h20M439 224h20M479 224h20M439 225h20M479 225h20M439 226h20M479 226h20M439 227h20M479 227h20M439 228h20M479 228h20M439 229h20M479 229h20M439 230h20M479 230h20M439 231h20M479 231h20M439 232h20M479 232h20M439 233h20M479 233h20M439 234h20M479 234h20M439 235h20M479 235h20M439 236h20M479 236h20M439 237h20M479 237h20M439 238h20M479 238h20M259 319h20M259 320h20M259 321h20M259 322h20M259 323h20M259 324h20M259 325h20M259 326h20M259 327h20M259 328h20M259 329h20M259 330h20M259 331h20M259 332h20M259 333h20M259 334h20M259 335h20M259 336h20M259 337h20M259 338h20M259 339h20M259 340h20M259 341h20M259 342h20M259 343h20M259 344h20M259 345h20M259 346h20M259 347h20M259 348h20M259 349h20M259 350h20M259 351h20M259 352h20M259 353h20M259 354h20M259 355h20M259 356h20M259 357h20M259 358h20M259 359h20M259 360h20M259 361h20M259 362h20M259 363h20M259 364h20M259 365h20M259 366h20M259 367h20M259 368h20M259 369h20M259 370h20M259 371h20M259 372h20M259 373h20M259 374h20M259 375h20M259 376h20M259 377h20M259 378h20M239 379h20M239 380h20M239 381h20M239 382h20M239 383h20M239 384h20M239 385h20M239 386h20M239 387h20M239 388h20M239 389h20M239 390h20M239 391h20M239 392h20M239 393h20M239 394h20M239 395h20M239 396h20M239 397h20M239 398h20M219 439h20M219 440h20M219 441h20M219 442h20M219 443h20M219 444h20M219 445h20M219 446h20M219 447h20M219 448h20M219 449h20M219 450h20M219 451h20M219 452h20M219 453h20M219 454h20M219 455h20M219 456h20M219 457h20M219 458h20M239 459h20M239 460h20M239 461h20M239 462h20M239 463h20M239 464h20M239 465h20M239 466h20M239 467h20M239 468h20M239 469h20M239 470h20M239 471h20M239 472h20M239 473h20M239 474h20M239 475h20M239 476h20M239 477h20M239 478h20" />
<path stroke="#323332" d="M459 219h20M499 219h20M459 220h20M499 220h20M459 221h20M499 221h20M459 222h20M499 222h20M459 223h20M499 223h20M459 224h20M499 224h20M459 225h20M499 225h20M459 226h20M499 226h20M459 227h20M499 227h20M459 228h20M499 228h20M459 229h20M499 229h20M459 230h20M499 230h20M459 231h20M499 231h20M459 232h20M499 232h20M459 233h20M499 233h20M459 234h20M499 234h20M459 235h20M499 235h20M459 236h20M499 236h20M459 237h20M499 237h20M459 238h20M499 238h20M279 319h20M279 320h20M279 321h20M279 322h20M279 323h20M279 324h20M279 325h20M279 326h20M279 327h20M279 328h20M279 329h20M279 330h20M279 331h20M279 332h20M279 333h20M279 334h20M279 335h20M279 336h20M279 337h20M279 338h20M319 459h20M319 460h20M319 461h20M319 462h20M319 463h20M319 464h20M319 465h20M319 466h20M319 467h20M319 468h20M319 469h20M319 470h20M319 471h20M319 472h20M319 473h20M319 474h20M319 475h20M319 476h20M319 477h20M319 478h20M319 479h20M319 480h20M319 481h20M319 482h20M319 483h20M319 484h20M319 485h20M319 486h20M319 487h20M319 488h20M319 489h20M319 490h20M319 491h20M319 492h20M319 493h20M319 494h20M319 495h20M319 496h20M319 497h20M319 498h20" />
<path stroke="#313131" d="M419 239h20M419 240h20M419 241h20M419 242h20M419 243h20M419 244h20M419 245h20M419 246h20M419 247h20M419 248h20M419 249h20M419 250h20M419 251h20M419 252h20M419 253h20M419 254h20M419 255h20M419 256h20M419 257h20M419 258h20M379 259h20M539 259h20M379 260h20M539 260h20M379 261h20M539 261h20M379 262h20M539 262h20M379 263h20M539 263h20M379 264h20M539 264h20M379 265h20M539 265h20M379 266h20M539 266h20M379 267h20M539 267h20M379 268h20M539 268h20M379 269h20M539 269h20M379 270h20M539 270h20M379 271h20M539 271h20M379 272h20M539 272h20M379 273h20M539 273h20M379 274h20M539 274h20M379 275h20M539 275h20M379 276h20M539 276h20M379 277h20M539 277h20M379 278h20M539 278h20M299 319h20M299 320h20M299 321h20M299 322h20M299 323h20M299 324h20M299 325h20M299 326h20M299 327h20M299 328h20M299 329h20M299 330h20M299 331h20M299 332h20M299 333h20M299 334h20M299 335h20M299 336h20M299 337h20M299 338h20M539 399h20M539 400h20M539 401h20M539 402h20M539 403h20M539 404h20M539 405h20M539 406h20M539 407h20M539 408h20M539 409h20M539 410h20M539 411h20M539 412h20M539 413h20M539 414h20M539 415h20M539 416h20M539 417h20M539 418h20M359 439h20M359 440h20M359 441h20M359 442h20M359 443h20M359 444h20M359 445h20M359 446h20M359 447h20M359 448h20M359 449h20M359 450h20M359 451h20M359 452h20M359 453h20M359 454h20M359 455h20M359 456h20M359 457h20M359 458h20M339 459h20M339 460h20M339 461h20M339 462h20M339 463h20M339 464h20M339 465h20M339 466h20M339 467h20M339 468h20M339 469h20M339 470h20M339 471h20M339 472h20M339 473h20M339 474h20M339 475h20M339 476h20M339 477h20M339 478h20M259 499h20M259 500h20M259 501h20M259 502h20M259 503h20M259 504h20M259 505h20M259 506h20M259 507h20M259 508h20M259 509h20M259 510h20M259 511h20M259 512h20M259 513h20M259 514h20M259 515h20M259 516h20M259 517h20M259 518h20M299 519h100M499 519h40M299 520h100M499 520h40M299 521h100M499 521h40M299 522h100M499 522h40M299 523h100M499 523h40M299 524h100M499 524h40M299 525h100M499 525h40M299 526h100M499 526h40M299 527h100M499 527h40M299 528h100M499 528h40M299 529h100M499 529h40M299 530h100M499 530h40M299 531h100M499 531h40M299 532h100M499 532h40M299 533h100M499 533h40M299 534h100M499 534h40M299 535h100M499 535h40M299 536h100M499 536h40M299 537h100M499 537h40M299 538h100M499 538h40M479 539h20M479 540h20M479 541h20M479 542h20M479 543h20M479 544h20M479 545h20M479 546h20M479 547h20M479 548h20M479 549h20M479 550h20M479 551h20M479 552h20M479 553h20M479 554h20M479 555h20M479 556h20M479 557h20M479 558h20M419 559h60M419 560h60M419 561h60M419 562h60M419 563h60M419 564h60M419 565h60M419 566h60M419 567h60M419 568h60M419 569h60M419 570h60M419 571h60M419 572h60M419 573h60M419 574h60M419 575h60M419 576h60M419 577h60M419 578h60M419 579h60" />
<path stroke="#6aab51" d="M439 239h20M439 240h20M439 241h20M439 242h20M439 243h20M439 244h20M439 245h20M439 246h20M439 247h20M439 248h20M439 249h20M439 250h20M439 251h20M439 252h20M439 253h20M439 254h20M439 255h20M439 256h20M439 257h20M439 258h20M399 259h20M399 260h20M399 261h20M399 262h20M399 263h20M399 264h20M399 265h20M399 266h20M399 267h20M399 268h20M399 269h20M399 270h20M399 271h20M399 272h20M399 273h20M399 274h20M399 275h20M399 276h20M399 277h20M399 278h20M359 279h20M359 280h20M359 281h20M359 282h20M359 283h20M359 284h20M359 285h20M359 286h20M359 287h20M359 288h20M359 289h20M359 290h20M359 291h20M359 292h20M359 293h20M359 294h20M359 295h20M359 296h20M359 297h20M359 298h20" />
<path stroke="#7acd7a" d="M459 239h20M459 240h20M459 241h20M459 242h20M459 243h20M459 244h20M459 245h20M459 246h20M459 247h20M459 248h20M459 249h20M459 250h20M459 251h20M459 252h20M459 253h20M459 254h20M459 255h20M459 256h20M459 257h20M459 258h20M259 399h20M259 400h20M259 401h20M259 402h20M259 403h20M259 404h20M259 405h20M259 406h20M259 407h20M259 408h20M259 409h20M259 410h20M259 411h20M259 412h20M259 413h20M259 414h20M259 415h20M259 416h20M259 417h20M259 418h20M339 419h20M339 420h20M339 421h20M339 422h20M339 423h20M339 424h20M339 425h20M339 426h20M339 427h20M339 428h20M339 429h20M339 430h20M339 431h20M339 432h20M339 433h20M339 434h20M339 435h20M339 436h20M339 437h20M339 438h20M259 479h20M259 480h20M259 481h20M259 482h20M259 483h20M259 484h20M259 485h20M259 486h20M259 487h20M259 488h20M259 489h20M259 490h20M259 491h20M259 492h20M259 493h20M259 494h20M259 495h20M259 496h20M259 497h20M259 498h20" />
<path stroke="#6bad52" d="M479 239h20M479 240h20M479 241h20M479 242h20M479 243h20M479 244h20M479 245h20M479 246h20M479 247h20M479 248h20M479 249h20M479 250h20M479 251h20M479 252h20M479 253h20M479 254h20M479 255h20M479 256h20M479 257h20M479 258h20M379 279h20M519 279h20M379 280h20M519 280h20M379 281h20M519 281h20M379 282h20M519 282h20M379 283h20M519 283h20M379 284h20M519 284h20M379 285h20M519 285h20M379 286h20M519 286h20M379 287h20M519 287h20M379 288h20M519 288h20M379 289h20M519 289h20M379 290h20M519 290h20M379 291h20M519 291h20M379 292h20M519 292h20M379 293h20M519 293h20M379 294h20M519 294h20M379 295h20M519 295h20M379 296h20M519 296h20M379 297h20M519 297h20M379 298h20M519 298h20M419 299h20M479 299h20M539 299h20M419 300h20M479 300h20M539 300h20M419 301h20M479 301h20M539 301h20M419 302h20M479 302h20M539 302h20M419 303h20M479 303h20M539 303h20M419 304h20M479 304h20M539 304h20M419 305h20M479 305h20M539 305h20M419 306h20M479 306h20M539 306h20M419 307h20M479 307h20M539 307h20M419 308h20M479 308h20M539 308h20M419 309h20M479 309h20M539 309h20M419 310h20M479 310h20M539 310h20M419 311h20M479 311h20M539 311h20M419 312h20M479 312h20M539 312h20M419 313h20M479 313h20M539 313h20M419 314h20M479 314h20M539 314h20M419 315h20M479 315h20M539 315h20M419 316h20M479 316h20M539 316h20M419 317h20M479 317h20M539 317h20M419 318h20M479 318h20M539 318h20M459 319h60M459 320h60M459 321h60M459 322h60M459 323h60M459 324h60M459 325h60M459 326h60M459 327h60M459 328h60M459 329h60M459 330h60M459 331h60M459 332h60M459 333h60M459 334h60M459 335h60M459 336h60M459 337h60M459 338h60M459 339h60M459 340h60M459 341h60M459 342h60M459 343h60M459 344h60M459 345h60M459 346h60M459 347h60M459 348h60M459 349h60M459 350h60M459 351h60M459 352h60M459 353h60M459 354h60M459 355h60M459 356h60M459 357h60M459 358h60" />
<path stroke="#313231" d="M499 239h20M499 240h20M499 241h20M499 242h20M499 243h20M499 244h20M499 245h20M499 246h20M499 247h20M499 248h20M499 249h20M499 250h20M499 251h20M499 252h20M499 253h20M499 254h20M499 255h20M499 256h20M499 257h20M499 258h20M519 259h20M519 260h20M519 261h20M519 262h20M519 263h20M519 264h20M519 265h20M519 266h20M519 267h20M519 268h20M519 269h20M519 270h20M519 271h20M519 272h20M519 273h20M519 274h20M519 275h20M519 276h20M519 277h20M519 278h20M559 279h20M559 280h20M559 281h20M559 282h20M559 283h20M559 284h20M559 285h20M559 286h20M559 287h20M559 288h20M559 289h20M559 290h20M559 291h20M559 292h20M559 293h20M559 294h20M559 295h20M559 296h20M559 297h20M559 298h20M579 299h21M579 300h21M579 301h21M579 302h21M579 303h21M579 304h21M579 305h21M579 306h21M579 307h21M579 308h21M579 309h21M579 310h21M579 311h21M579 312h21M579 313h21M579 314h21M579 315h21M579 316h21M579 317h21M579 318h21M579 319h21M579 320h21M579 321h21M579 322h21M579 323h21M579 324h21M579 325h21M579 326h21M579 327h21M579 328h21M579 329h21M579 330h21M579 331h21M579 332h21M579 333h21M579 334h21M579 335h21M579 336h21M579 337h21M579 338h21M579 339h21M579 340h21M579 341h21M579 342h21M579 343h21M579 344h21M579 345h21M579 346h21M579 347h21M579 348h21M579 349h21M579 350h21M579 351h21M579 352h21M579 353h21M579 354h21M579 355h21M579 356h21M579 357h21M579 358h21M579 359h21M579 360h21M579 361h21M579 362h21M579 363h21M579 364h21M579 365h21M579 366h21M579 367h21M579 368h21M579 369h21M579 370h21M579 371h21M579 372h21M579 373h21M579 374h21M579 375h21M579 376h21M579 377h21M579 378h21M559 379h20M559 380h20M559 381h20M559 382h20M559 383h20M559 384h20M559 385h20M559 386h20M559 387h20M559 388h20M559 389h20M559 390h20M559 391h20M559 392h20M559 393h20M559 394h20M559 395h20M559 396h20M559 397h20M559 398h20M539 419h20M539 420h20M539 421h20M539 422h20M539 423h20M539 424h20M539 425h20M539 426h20M539 427h20M539 428h20M539 429h20M539 430h20M539 431h20M539 432h20M539 433h20M539 434h20M539 435h20M539 436h20M539 437h20M539 438h20M559 439h20M559 440h20M559 441h20M559 442h20M559 443h20M559 444h20M559 445h20M559 446h20M559 447h20M559 448h20M559 449h20M559 450h20M559 451h20M559 452h20M559 453h20M559 454h20M559 455h20M559 456h20M559 457h20M559 458h20M559 459h20M559 460h20M559 461h20M559 462h20M559 463h20M559 464h20M559 465h20M559 466h20M559 467h20M559 468h20M559 469h20M559 470h20M559 471h20M559 472h20M559 473h20M559 474h20M559 475h20M559 476h20M559 477h20M559 478h20M559 479h20M559 480h20M559 481h20M559 482h20M559 483h20M559 484h20M559 485h20M559 486h20M559 487h20M559 488h20M559 489h20M559 490h20M559 491h20M559 492h20M559 493h20M559 494h20M559 495h20M559 496h20M559 497h20M559 498h20" />
<path stroke="#427339" d="M419 259h40M479 259h20M419 260h40M479 260h20M419 261h40M479 261h20M419 262h40M479 262h20M419 263h40M479 263h20M419 264h40M479 264h20M419 265h40M479 265h20M419 266h40M479 266h20M419 267h40M479 267h20M419 268h40M479 268h20M419 269h40M479 269h20M419 270h40M479 270h20M419 271h40M479 271h20M419 272h40M479 272h20M419 273h40M479 273h20M419 274h40M479 274h20M419 275h40M479 275h20M419 276h40M479 276h20M419 277h40M479 277h20M419 278h40M479 278h20M399 279h20M439 279h20M479 279h20M539 279h20M399 280h20M439 280h20M479 280h20M539 280h20M399 281h20M439 281h20M479 281h20M539 281h20M399 282h20M439 282h20M479 282h20M539 282h20M399 283h20M439 283h20M479 283h20M539 283h20M399 284h20M439 284h20M479 284h20M539 284h20M399 285h20M439 285h20M479 285h20M539 285h20M399 286h20M439 286h20M479 286h20M539 286h20M399 287h20M439 287h20M479 287h20M539 287h20M399 288h20M439 288h20M479 288h20M539 288h20M399 289h20M439 289h20M479 289h20M539 289h20M399 290h20M439 290h20M479 290h20M539 290h20M399 291h20M439 291h20M479 291h20M539 291h20M399 292h20M439 292h20M479 292h20M539 292h20M399 293h20M439 293h20M479 293h20M539 293h20M399 294h20M439 294h20M479 294h20M539 294h20M399 295h20M439 295h20M479 295h20M539 295h20M399 296h20M439 296h20M479 296h20M539 296h20M399 297h20M439 297h20M479 297h20M539 297h20M399 298h20M439 298h20M479 298h20M539 298h20M379 299h20M439 299h20M499 299h20M559 299h20M379 300h20M439 300h20M499 300h20M559 300h20M379 301h20M439 301h20M499 301h20M559 301h20M379 302h20M439 302h20M499 302h20M559 302h20M379 303h20M439 303h20M499 303h20M559 303h20M379 304h20M439 304h20M499 304h20M559 304h20M379 305h20M439 305h20M499 305h20M559 305h20M379 306h20M439 306h20M499 306h20M559 306h20M379 307h20M439 307h20M499 307h20M559 307h20M379 308h20M439 308h20M499 308h20M559 308h20M379 309h20M439 309h20M499 309h20M559 309h20M379 310h20M439 310h20M499 310h20M559 310h20M379 311h20M439 311h20M499 311h20M559 311h20M379 312h20M439 312h20M499 312h20M559 312h20M379 313h20M439 313h20M499 313h20M559 313h20M379 314h20M439 314h20M499 314h20M559 314h20M379 315h20M439 315h20M499 315h20M559 315h20M379 316h20M439 316h20M499 316h20M559 316h20M379 317h20M439 317h20M499 317h20M559 317h20M379 318h20M439 318h20M499 318h20M559 318h20M359 319h20M419 319h20M519 319h20M359 320h20M419 320h20M519 320h20M359 321h20M419 321h20M519 321h20M359 322h20M419 322h20M519 322h20M359 323h20M419 323h20M519 323h20M359 324h20M419 324h20M519 324h20M359 325h20M419 325h20M519 325h20M359 326h20M419 326h20M519 326h20M359 327h20M419 327h20M519 327h20M359 328h20M419 328h20M519 328h20M359 329h20M419 329h20M519 329h20M359 330h20M419 330h20M519 330h20M359 331h20M419 331h20M519 331h20M359 332h20M419 332h20M519 332h20M359 333h20M419 333h20M519 333h20M359 334h20M419 334h20M519 334h20M359 335h20M419 335h20M519 335h20M359 336h20M419 336h20M519 336h20M359 337h20M419 337h20M519 337h20M359 338h20M419 338h20M519 338h20M419 339h20M519 339h20M419 340h20M519 340h20M419 341h20M519 341h20M419 342h20M519 342h20M419 343h20M519 343h20M419 344h20M519 344h20M419 345h20M519 345h20M419 346h20M519 346h20M419 347h20M519 347h20M419 348h20M519 348h20M419 349h20M519 349h20M419 350h20M519 350h20M419 351h20M519 351h20M419 352h20M519 352h20M419 353h20M519 353h20M419 354h20M519 354h20M419 355h20M519 355h20M419 356h20M519 356h20M419 357h20M519 357h20M419 358h20M519 358h20M319 359h40M419 359h20M519 359h20M319 360h40M419 360h20M519 360h20M319 361h40M419 361h20M519 361h20M319 362h40M419 362h20M519 362h20M319 363h40M419 363h20M519 363h20M319 364h40M419 364h20M519 364h20M319 365h40M419 365h20M519 365h20M319 366h40M419 366h20M519 366h20M319 367h40M419 367h20M519 367h20M319 368h40M419 368h20M519 368h20M319 369h40M419 369h20M519 369h20M319 370h40M419 370h20M519 370h20M319 371h40M419 371h20M519 371h20M319 372h40M419 372h20M519 372h20M319 373h40M419 373h20M519 373h20M319 374h40M419 374h20M519 374h20M319 375h40M419 375h20M519 375h20M319 376h40M419 376h20M519 376h20M319 377h40M419 377h20M519 377h20M319 378h40M419 378h20M519 378h20M319 379h40M519 379h20M319 380h40M519 380h20M319 381h40M519 381h20M319 382h40M519 382h20M319 383h40M519 383h20M319 384h40M519 384h20M319 385h40M519 385h20M319 386h40M519 386h20M319 387h40M519 387h20M319 388h40M519 388h20M319 389h40M519 389h20M319 390h40M519 390h20M319 391h40M519 391h20M319 392h40M519 392h20M319 393h40M519 393h20M319 394h40M519 394h20M319 395h40M519 395h20M319 396h40M519 396h20M319 397h40M519 397h20M319 398h40M519 398h20M499 399h20M499 400h20M499 401h20M499 402h20M499 403h20M499 404h20M499 405h20M499 406h20M499 407h20M499 408h20M499 409h20M499 410h20M499 411h20M499 412h20M499 413h20M499 414h20M499 415h20M499 416h20M499 417h20M499 418h20M519 439h40M519 440h40M519 441h40M519 442h40M519 443h40M519 444h40M519 445h40M519 446h40M519 447h40M519 448h40M519 449h40M519 450h40M519 451h40M519 452h40M519 453h40M519 454h40M519 455h40M519 456h40M519 457h40M519 458h40M519 459h40M519 460h40M519 461h40M519 462h40M519 463h40M519 464h40M519 465h40M519 466h40M519 467h40M519 468h40M519 469h40M519 470h40M519 471h40M519 472h40M519 473h40M519 474h40M519 475h40M519 476h40M519 477h40M519 478h40M439 479h40M439 480h40M439 481h40M439 482h40M439 483h40M439 484h40M439 485h40M439 486h40M439 487h40M439 488h40M439 489h40M439 490h40M439 491h40M439 492h40M439 493h40M439 494h40M439 495h40M439 496h40M439 497h40M439 498h40M439 499h40M439 500h40M439 501h40M439 502h40M439 503h40M439 504h40M439 505h40M439 506h40M439 507h40M439 508h40M439 509h40M439 510h40M439 511h40M439 512h40M439 513h40M439 514h40M439 515h40M439 516h40M439 517h40M439 518h40" />
<path stroke="#6aac51" d="M459 259h20M499 259h20M459 260h20M499 260h20M459 261h20M499 261h20M459 262h20M499 262h20M459 263h20M499 263h20M459 264h20M499 264h20M459 265h20M499 265h20M459 266h20M499 266h20M459 267h20M499 267h20M459 268h20M499 268h20M459 269h20M499 269h20M459 270h20M499 270h20M459 271h20M499 271h20M459 272h20M499 272h20M459 273h20M499 273h20M459 274h20M499 274h20M459 275h20M499 275h20M459 276h20M499 276h20M459 277h20M499 277h20M459 278h20M499 278h20M419 279h20M459 279h20M499 279h20M419 280h20M459 280h20M499 280h20M419 281h20M459 281h20M499 281h20M419 282h20M459 282h20M499 282h20M419 283h20M459 283h20M499 283h20M419 284h20M459 284h20M499 284h20M419 285h20M459 285h20M499 285h20M419 286h20M459 286h20M499 286h20M419 287h20M459 287h20M499 287h20M419 288h20M459 288h20M499 288h20M419 289h20M459 289h20M499 289h20M419 290h20M459 290h20M499 290h20M419 291h20M459 291h20M499 291h20M419 292h20M459 292h20M499 292h20M419 293h20M459 293h20M499 293h20M419 294h20M459 294h20M499 294h20M419 295h20M459 295h20M499 295h20M419 296h20M459 296h20M499 296h20M419 297h20M459 297h20M499 297h20M419 298h20M459 298h20M499 298h20M399 299h20M459 299h20M519 299h20M399 300h20M459 300h20M519 300h20M399 301h20M459 301h20M519 301h20M399 302h20M459 302h20M519 302h20M399 303h20M459 303h20M519 303h20M399 304h20M459 304h20M519 304h20M399 305h20M459 305h20M519 305h20M399 306h20M459 306h20M519 306h20M399 307h20M459 307h20M519 307h20M399 308h20M459 308h20M519 308h20M399 309h20M459 309h20M519 309h20M399 310h20M459 310h20M519 310h20M399 311h20M459 311h20M519 311h20M399 312h20M459 312h20M519 312h20M399 313h20M459 313h20M519 313h20M399 314h20M459 314h20M519 314h20M399 315h20M459 315h20M519 315h20M399 316h20M459 316h20M519 316h20M399 317h20M459 317h20M519 317h20M399 318h20M459 318h20M519 318h20M439 319h20M539 319h20M439 320h20M539 320h20M439 321h20M539 321h20M439 322h20M539 322h20M439 323h20M539 323h20M439 324h20M539 324h20M439 325h20M539 325h20M439 326h20M539 326h20M439 327h20M539 327h20M439 328h20M539 328h20M439 329h20M539 329h20M439 330h20M539 330h20M439 331h20M539 331h20M439 332h20M539 332h20M439 333h20M539 333h20M439 334h20M539 334h20M439 335h20M539 335h20M439 336h20M539 336h20M439 337h20M539 337h20M439 338h20M539 338h20M439 339h20M439 340h20M439 341h20M439 342h20M439 343h20M439 344h20M439 345h20M439 346h20M439 347h20M439 348h20M439 349h20M439 350h20M439 351h20M439 352h20M439 353h20M439 354h20M439 355h20M439 356h20M439 357h20M439 358h20" />
<path stroke="#518a51" d="M339 299h20M339 300h20M339 301h20M339 302h20M339 303h20M339 304h20M339 305h20M339 306h20M339 307h20M339 308h20M339 309h20M339 310h20M339 311h20M339 312h20M339 313h20M339 314h20M339 315h20M339 316h20M339 317h20M339 318h20" />
<path stroke="#6aac52" d="M359 299h20M359 300h20M359 301h20M359 302h20M359 303h20M359 304h20M359 305h20M359 306h20M359 307h20M359 308h20M359 309h20M359 310h20M359 311h20M359 312h20M359 313h20M359 314h20M359 315h20M359 316h20M359 317h20M359 318h20M399 319h20M399 320h20M399 321h20M399 322h20M399 323h20M399 324h20M399 325h20M399 326h20M399 327h20M399 328h20M399 329h20M399 330h20M399 331h20M399 332h20M399 333h20M399 334h20M399 335h20M399 336h20M399 337h20M399 338h20" />
<path stroke="#515151" d="M319 319h20M319 320h20M319 321h20M319 322h20M319 323h20M319 324h20M319 325h20M319 326h20M319 327h20M319 328h20M319 329h20M319 330h20M319 331h20M319 332h20M319 333h20M319 334h20M319 335h20M319 336h20M319 337h20M319 338h20M379 439h20M379 440h20M379 441h20M379 442h20M379 443h20M379 444h20M379 445h20M379 446h20M379 447h20M379 448h20M379 449h20M379 450h20M379 451h20M379 452h20M379 453h20M379 454h20M379 455h20M379 456h20M379 457h20M379 458h20" />
<path stroke="#528b52" d="M339 319h20M339 320h20M339 321h20M339 322h20M339 323h20M339 324h20M339 325h20M339 326h20M339 327h20M339 328h20M339 329h20M339 330h20M339 331h20M339 332h20M339 333h20M339 334h20M339 335h20M339 336h20M339 337h20M339 338h20M379 339h20M379 340h20M379 341h20M379 342h20M379 343h20M379 344h20M379 345h20M379 346h20M379 347h20M379 348h20M379 349h20M379 350h20M379 351h20M379 352h20M379 353h20M379 354h20M379 355h20M379 356h20M379 357h20M379 358h20M399 359h20M399 360h20M399 361h20M399 362h20M399 363h20M399 364h20M399 365h20M399 366h20M399 367h20M399 368h20M399 369h20M399 370h20M399 371h20M399 372h20M399 373h20M399 374h20M399 375h20M399 376h20M399 377h20M399 378h20M459 379h20M459 380h20M459 381h20M459 382h20M459 383h20M459 384h20M459 385h20M459 386h20M459 387h20M459 388h20M459 389h20M459 390h20M459 391h20M459 392h20M459 393h20M459 394h20M459 395h20M459 396h20M459 397h20M459 398h20M459 399h20M459 400h20M459 401h20M459 402h20M459 403h20M459 404h20M459 405h20M459 406h20M459 407h20M459 408h20M459 409h20M459 410h20M459 411h20M459 412h20M459 413h20M459 414h20M459 415h20M459 416h20M459 417h20M459 418h20" />
<path stroke="#518b51" d="M379 319h20M379 320h20M379 321h20M379 322h20M379 323h20M379 324h20M379 325h20M379 326h20M379 327h20M379 328h20M379 329h20M379 330h20M379 331h20M379 332h20M379 333h20M379 334h20M379 335h20M379 336h20M379 337h20M379 338h20M539 339h20M539 340h20M539 341h20M539 342h20M539 343h20M539 344h20M539 345h20M539 346h20M539 347h20M539 348h20M539 349h20M539 350h20M539 351h20M539 352h20M539 353h20M539 354h20M539 355h20M539 356h20M539 357h20M539 358h20M439 359h20M539 359h20M439 360h20M539 360h20M439 361h20M539 361h20M439 362h20M539 362h20M439 363h20M539 363h20M439 364h20M539 364h20M439 365h20M539 365h20M439 366h20M539 366h20M439 367h20M539 367h20M439 368h20M539 368h20M439 369h20M539 369h20M439 370h20M539 370h20M439 371h20M539 371h20M439 372h20M539 372h20M439 373h20M539 373h20M439 374h20M539 374h20M439 375h20M539 375h20M439 376h20M539 376h20M439 377h20M539 377h20M439 378h20M539 378h20M539 379h20M539 380h20M539 381h20M539 382h20M539 383h20M539 384h20M539 385h20M539 386h20M539 387h20M539 388h20M539 389h20M539 390h20M539 391h20M539 392h20M539 393h20M539 394h20M539 395h20M539 396h20M539 397h20M539 398h20" />
<path stroke="#528c52" d="M559 319h20M559 320h20M559 321h20M559 322h20M559 323h20M559 324h20M559 325h20M559 326h20M559 327h20M559 328h20M559 329h20M559 330h20M559 331h20M559 332h20M559 333h20M559 334h20M559 335h20M559 336h20M559 337h20M559 338h20M399 339h20M559 339h20M399 340h20M559 340h20M399 341h20M559 341h20M399 342h20M559 342h20M399 343h20M559 343h20M399 344h20M559 344h20M399 345h20M559 345h20M399 346h20M559 346h20M399 347h20M559 347h20M399 348h20M559 348h20M399 349h20M559 349h20M399 350h20M559 350h20M399 351h20M559 351h20M399 352h20M559 352h20M399 353h20M559 353h20M399 354h20M559 354h20M399 355h20M559 355h20M399 356h20M559 356h20M399 357h20M559 357h20M399 358h20M559 358h20M459 359h60M559 359h20M459 360h60M559 360h20M459 361h60M559 361h20M459 362h60M559 362h20M459 363h60M559 363h20M459 364h60M559 364h20M459 365h60M559 365h20M459 366h60M559 366h20M459 367h60M559 367h20M459 368h60M559 368h20M459 369h60M559 369h20M459 370h60M559 370h20M459 371h60M559 371h20M459 372h60M559 372h20M459 373h60M559 373h20M459 374h60M559 374h20M459 375h60M559 375h20M459 376h60M559 376h20M459 377h60M559 377h20M459 378h60M559 378h20M479 379h40M479 380h40M479 381h40M479 382h40M479 383h40M479 384h40M479 385h40M479 386h40M479 387h40M479 388h40M479 389h40M479 390h40M479 391h40M479 392h40M479 393h40M479 394h40M479 395h40M479 396h40M479 397h40M479 398h40M479 399h20M479 400h20M479 401h20M479 402h20M479 403h20M479 404h20M479 405h20M479 406h20M479 407h20M479 408h20M479 409h20M479 410h20M479 411h20M479 412h20M479 413h20M479 414h20M479 415h20M479 416h20M479 417h20M479 418h20" />
<path stroke="#7bce7b" d="M279 339h40M279 340h40M279 341h40M279 342h40M279 343h40M279 344h40M279 345h40M279 346h40M279 347h40M279 348h40M279 349h40M279 350h40M279 351h40M279 352h40M279 353h40M279 354h40M279 355h40M279 356h40M279 357h40M279 358h40M279 359h20M279 360h20M279 361h20M279 362h20M279 363h20M279 364h20M279 365h20M279 366h20M279 367h20M279 368h20M279 369h20M279 370h20M279 371h20M279 372h20M279 373h20M279 374h20M279 375h20M279 376h20M279 377h20M279 378h20M259 379h40M259 380h40M259 381h40M259 382h40M259 383h40M259 384h40M259 385h40M259 386h40M259 387h40M259 388h40M259 389h40M259 390h40M259 391h40M259 392h40M259 393h40M259 394h40M259 395h40M259 396h40M259 397h40M259 398h40M279 399h160M279 400h160M279 401h160M279 402h160M279 403h160M279 404h160M279 405h160M279 406h160M279 407h160M279 408h160M279 409h160M279 410h160M279 411h160M279 412h160M279 413h160M279 414h160M279 415h160M279 416h160M279 417h160M279 418h160M279 419h40M359 419h60M279 420h40M359 420h60M279 421h40M359 421h60M279 422h40M359 422h60M279 423h40M359 423h60M279 424h40M359 424h60M279 425h40M359 425h60M279 426h40M359 426h60M279 427h40M359 427h60M279 428h40M359 428h60M279 429h40M359 429h60M279 430h40M359 430h60M279 431h40M359 431h60M279 432h40M359 432h60M279 433h40M359 433h60M279 434h40M359 434h60M279 435h40M359 435h60M279 436h40M359 436h60M279 437h40M359 437h60M279 438h40M359 438h60M239 439h60M239 440h60M239 441h60M239 442h60M239 443h60M239 444h60M239 445h60M239 446h60M239 447h60M239 448h60M239 449h60M239 450h60M239 451h60M239 452h60M239 453h60M239 454h60M239 455h60M239 456h60M239 457h60M239 458h60M259 459h60M259 460h60M259 461h60M259 462h60M259 463h60M259 464h60M259 465h60M259 466h60M259 467h60M259 468h60M259 469h60M259 470h60M259 471h60M259 472h60M259 473h60M259 474h60M259 475h60M259 476h60M259 477h60M259 478h60M279 479h40M279 480h40M279 481h40M279 482h40M279 483h40M279 484h40M279 485h40M279 486h40M279 487h40M279 488h40M279 489h40M279 490h40M279 491h40M279 492h40M279 493h40M279 494h40M279 495h40M279 496h40M279 497h40M279 498h40" />
<path stroke="#639c63" d="M319 339h20M319 340h20M319 341h20M319 342h20M319 343h20M319 344h20M319 345h20M319 346h20M319 347h20M319 348h20M319 349h20M319 350h20M319 351h20M319 352h20M319 353h20M319 354h20M319 355h20M319 356h20M319 357h20M319 358h20M299 359h20M299 360h20M299 361h20M299 362h20M299 363h20M299 364h20M299 365h20M299 366h20M299 367h20M299 368h20M299 369h20M299 370h20M299 371h20M299 372h20M299 373h20M299 374h20M299 375h20M299 376h20M299 377h20M299 378h20M379 379h20M379 380h20M379 381h20M379 382h20M379 383h20M379 384h20M379 385h20M379 386h20M379 387h20M379 388h20M379 389h20M379 390h20M379 391h20M379 392h20M379 393h20M379 394h20M379 395h20M379 396h20M379 397h20M379 398h20M319 419h20M319 420h20M319 421h20M319 422h20M319 423h20M319 424h20M319 425h20M319 426h20M319 427h20M319 428h20M319 429h20M319 430h20M319 431h20M319 432h20M319 433h20M319 434h20M319 435h20M319 436h20M319 437h20M319 438h20M419 439h100M419 440h100M419 441h100M419 442h100M419 443h100M419 444h100M419 445h100M419 446h100M419 447h100M419 448h100M419 449h100M419 450h100M419 451h100M419 452h100M419 453h100M419 454h100M419 455h100M419 456h100M419 457h100M419 458h100M419 459h40M499 459h20M419 460h40M499 460h20M419 461h40M499 461h20M419 462h40M499 462h20M419 463h40M499 463h20M419 464h40M499 464h20M419 465h40M499 465h20M419 466h40M499 466h20M419 467h40M499 467h20M419 468h40M499 468h20M419 469h40M499 469h20M419 470h40M499 470h20M419 471h40M499 471h20M419 472h40M499 472h20M419 473h40M499 473h20M419 474h40M499 474h20M419 475h40M499 475h20M419 476h40M499 476h20M419 477h40M499 477h20M419 478h40M499 478h20M399 479h40M519 479h40M399 480h40M519 480h40M399 481h40M519 481h40M399 482h40M519 482h40M399 483h40M519 483h40M399 484h40M519 484h40M399 485h40M519 485h40M399 486h40M519 486h40M399 487h40M519 487h40M399 488h40M519 488h40M399 489h40M519 489h40M399 490h40M519 490h40M399 491h40M519 491h40M399 492h40M519 492h40M399 493h40M519 493h40M399 494h40M519 494h40M399 495h40M519 495h40M399 496h40M519 496h40M399 497h40M519 497h40M399 498h40M519 498h40M299 499h100M299 500h100M299 501h100M299 502h100M299 503h100M299 504h100M299 505h100M299 506h100M299 507h100M299 508h100M299 509h100M299 510h100M299 511h100M299 512h100M299 513h100M299 514h100M299 515h100M299 516h100M299 517h100M299 518h100M419 519h60M419 520h60M419 521h60M419 522h60M419 523h60M419 524h60M419 525h60M419 526h60M419 527h60M419 528h60M419 529h60M419 530h60M419 531h60M419 532h60M419 533h60M419 534h60M419 535h60M419 536h60M419 537h60M419 538h60" />
<path stroke="#525352" d="M339 339h20M339 340h20M339 341h20M339 342h20M339 343h20M339 344h20M339 345h20M339 346h20M339 347h20M339 348h20M339 349h20M339 350h20M339 351h20M339 352h20M339 353h20M339 354h20M339 355h20M339 356h20M339 357h20M339 358h20M379 359h20M379 360h20M379 361h20M379 362h20M379 363h20M379 364h20M379 365h20M379 366h20M379 367h20M379 368h20M379 369h20M379 370h20M379 371h20M379 372h20M379 373h20M379 374h20M379 375h20M379 376h20M379 377h20M379 378h20M399 379h20M399 380h20M399 381h20M399 382h20M399 383h20M399 384h20M399 385h20M399 386h20M399 387h20M399 388h20M399 389h20M399 390h20M399 391h20M399 392h20M399 393h20M399 394h20M399 395h20M399 396h20M399 397h20M399 398h20M439 399h20M439 400h20M439 401h20M439 402h20M439 403h20M439 404h20M439 405h20M439 406h20M439 407h20M439 408h20M439 409h20M439 410h20M439 411h20M439 412h20M439 413h20M439 414h20M439 415h20M439 416h20M439 417h20M439 418h20M419 419h20M459 419h20M419 420h20M459 420h20M419 421h20M459 421h20M419 422h20M459 422h20M419 423h20M459 423h20M419 424h20M459 424h20M419 425h20M459 425h20M419 426h20M459 426h20M419 427h20M459 427h20M419 428h20M459 428h20M419 429h20M459 429h20M419 430h20M459 430h20M419 431h20M459 431h20M419 432h20M459 432h20M419 433h20M459 433h20M419 434h20M459 434h20M419 435h20M459 435h20M419 436h20M459 436h20M419 437h20M459 437h20M419 438h20M459 438h20M339 439h20M339 440h20M339 441h20M339 442h20M339 443h20M339 444h20M339 445h20M339 446h20M339 447h20M339 448h20M339 449h20M339 450h20M339 451h20M339 452h20M339 453h20M339 454h20M339 455h20M339 456h20M339 457h20M339 458h20M459 459h20M459 460h20M459 461h20M459 462h20M459 463h20M459 464h20M459 465h20M459 466h20M459 467h20M459 468h20M459 469h20M459 470h20M459 471h20M459 472h20M459 473h20M459 474h20M459 475h20M459 476h20M459 477h20M459 478h20M399 499h20M399 500h20M399 501h20M399 502h20M399 503h20M399 504h20M399 505h20M399 506h20M399 507h20M399 508h20M399 509h20M399 510h20M399 511h20M399 512h20M399 513h20M399 514h20M399 515h20M399 516h20M399 517h20M399 518h20M479 519h20M479 520h20M479 521h20M479 522h20M479 523h20M479 524h20M479 525h20M479 526h20M479 527h20M479 528h20M479 529h20M479 530h20M479 531h20M479 532h20M479 533h20M479 534h20M479 535h20M479 536h20M479 537h20M479 538h20" />
<path stroke="#525252" d="M359 339h20M359 340h20M359 341h20M359 342h20M359 343h20M359 344h20M359 345h20M359 346h20M359 347h20M359 348h20M359 349h20M359 350h20M359 351h20M359 352h20M359 353h20M359 354h20M359 355h20M359 356h20M359 357h20M359 358h20M419 379h40M419 380h40M419 381h40M419 382h40M419 383h40M419 384h40M419 385h40M419 386h40M419 387h40M419 388h40M419 389h40M419 390h40M419 391h40M419 392h40M419 393h40M419 394h40M419 395h40M419 396h40M419 397h40M419 398h40M479 419h40M479 420h40M479 421h40M479 422h40M479 423h40M479 424h40M479 425h40M479 426h40M479 427h40M479 428h40M479 429h40M479 430h40M479 431h40M479 432h40M479 433h40M479 434h40M479 435h40M479 436h40M479 437h40M479 438h40" />
<path stroke="#629b62" d="M359 359h20M359 360h20M359 361h20M359 362h20M359 363h20M359 364h20M359 365h20M359 366h20M359 367h20M359 368h20M359 369h20M359 370h20M359 371h20M359 372h20M359 373h20M359 374h20M359 375h20M359 376h20M359 377h20M359 378h20" />
<path stroke="#42743a" d="M299 379h20M299 380h20M299 381h20M299 382h20M299 383h20M299 384h20M299 385h20M299 386h20M299 387h20M299 388h20M299 389h20M299 390h20M299 391h20M299 392h20M299 393h20M299 394h20M299 395h20M299 396h20M299 397h20M299 398h20M299 439h20M299 440h20M299 441h20M299 442h20M299 443h20M299 444h20M299 445h20M299 446h20M299 447h20M299 448h20M299 449h20M299 450h20M299 451h20M299 452h20M299 453h20M299 454h20M299 455h20M299 456h20M299 457h20M299 458h20" />
<path stroke="#7acc79" d="M359 379h20M359 380h20M359 381h20M359 382h20M359 383h20M359 384h20M359 385h20M359 386h20M359 387h20M359 388h20M359 389h20M359 390h20M359 391h20M359 392h20M359 393h20M359 394h20M359 395h20M359 396h20M359 397h20M359 398h20M259 419h20M259 420h20M259 421h20M259 422h20M259 423h20M259 424h20M259 425h20M259 426h20M259 427h20M259 428h20M259 429h20M259 430h20M259 431h20M259 432h20M259 433h20M259 434h20M259 435h20M259 436h20M259 437h20M259 438h20M319 439h20M319 440h20M319 441h20M319 442h20M319 443h20M319 444h20M319 445h20M319 446h20M319 447h20M319 448h20M319 449h20M319 450h20M319 451h20M319 452h20M319 453h20M319 454h20M319 455h20M319 456h20M319 457h20M319 458h20" />
<path stroke="#629a62" d="M239 399h20M239 400h20M239 401h20M239 402h20M239 403h20M239 404h20M239 405h20M239 406h20M239 407h20M239 408h20M239 409h20M239 410h20M239 411h20M239 412h20M239 413h20M239 414h20M239 415h20M239 416h20M239 417h20M239 418h20M439 419h20M519 419h20M439 420h20M519 420h20M439 421h20M519 421h20M439 422h20M519 422h20M439 423h20M519 423h20M439 424h20M519 424h20M439 425h20M519 425h20M439 426h20M519 426h20M439 427h20M519 427h20M439 428h20M519 428h20M439 429h20M519 429h20M439 430h20M519 430h20M439 431h20M519 431h20M439 432h20M519 432h20M439 433h20M519 433h20M439 434h20M519 434h20M439 435h20M519 435h20M439 436h20M519 436h20M439 437h20M519 437h20M439 438h20M519 438h20M479 459h20M479 460h20M479 461h20M479 462h20M479 463h20M479 464h20M479 465h20M479 466h20M479 467h20M479 468h20M479 469h20M479 470h20M479 471h20M479 472h20M479 473h20M479 474h20M479 475h20M479 476h20M479 477h20M479 478h20M239 479h20M499 479h20M239 480h20M499 480h20M239 481h20M499 481h20M239 482h20M499 482h20M239 483h20M499 483h20M239 484h20M499 484h20M239 485h20M499 485h20M239 486h20M499 486h20M239 487h20M499 487h20M239 488h20M499 488h20M239 489h20M499 489h20M239 490h20M499 490h20M239 491h20M499 491h20M239 492h20M499 492h20M239 493h20M499 493h20M239 494h20M499 494h20M239 495h20M499 495h20M239 496h20M499 496h20M239 497h20M499 497h20M239 498h20M499 498h20M279 499h20M419 499h20M499 499h20M279 500h20M419 500h20M499 500h20M279 501h20M419 501h20M499 501h20M279 502h20M419 502h20M499 502h20M279 503h20M419 503h20M499 503h20M279 504h20M419 504h20M499 504h20M279 505h20M419 505h20M499 505h20M279 506h20M419 506h20M499 506h20M279 507h20M419 507h20M499 507h20M279 508h20M419 508h20M499 508h20M279 509h20M419 509h20M499 509h20M279 510h20M419 510h20M499 510h20M279 511h20M419 511h20M499 511h20M279 512h20M419 512h20M499 512h20M279 513h20M419 513h20M499 513h20M279 514h20M419 514h20M499 514h20M279 515h20M419 515h20M499 515h20M279 516h20M419 516h20M499 516h20M279 517h20M419 517h20M499 517h20M279 518h20M419 518h20M499 518h20M399 519h20M399 520h20M399 521h20M399 522h20M399 523h20M399 524h20M399 525h20M399 526h20M399 527h20M399 528h20M399 529h20M399 530h20M399 531h20M399 532h20M399 533h20M399 534h20M399 535h20M399 536h20M399 537h20M399 538h20" />
<path stroke="#515251" d="M519 399h20M519 400h20M519 401h20M519 402h20M519 403h20M519 404h20M519 405h20M519 406h20M519 407h20M519 408h20M519 409h20M519 410h20M519 411h20M519 412h20M519 413h20M519 414h20M519 415h20M519 416h20M519 417h20M519 418h20M479 479h20M479 480h20M479 481h20M479 482h20M479 483h20M479 484h20M479 485h20M479 486h20M479 487h20M479 488h20M479 489h20M479 490h20M479 491h20M479 492h20M479 493h20M479 494h20M479 495h20M479 496h20M479 497h20M479 498h20M479 499h20M479 500h20M479 501h20M479 502h20M479 503h20M479 504h20M479 505h20M479 506h20M479 507h20M479 508h20M479 509h20M479 510h20M479 511h20M479 512h20M479 513h20M479 514h20M479 515h20M479 516h20M479 517h20M479 518h20" />
<path stroke="#ba4941" d="M219 419h20M219 420h20M219 421h20M219 422h20M219 423h20M219 424h20M219 425h20M219 426h20M219 427h20M219 428h20M219 429h20M219 430h20M219 431h20M219 432h20M219 433h20M219 434h20M219 435h20M219 436h20M219 437h20M219 438h20" />
<path stroke="#437239" d="M239 419h20M239 420h20M239 421h20M239 422h20M239 423h20M239 424h20M239 425h20M239 426h20M239 427h20M239 428h20M239 429h20M239 430h20M239 431h20M239 432h20M239 433h20M239 434h20M239 435h20M239 436h20M239 437h20M239 438h20" />
<path stroke="#7acc7a" d="M399 439h20M399 440h20M399 441h20M399 442h20M399 443h20M399 444h20M399 445h20M399 446h20M399 447h20M399 448h20M399 449h20M399 450h20M399 451h20M399 452h20M399 453h20M399 454h20M399 455h20M399 456h20M399 457h20M399 458h20" />
<path stroke="#fbfbfb" d="M359 459h20M359 460h20M359 461h20M359 462h20M359 463h20M359 464h20M359 465h20M359 466h20M359 467h20M359 468h20M359 469h20M359 470h20M359 471h20M359 472h20M359 473h20M359 474h20M359 475h20M359 476h20M359 477h20M359 478h20M399 539h20M399 540h20M399 541h20M399 542h20M399 543h20M399 544h20M399 545h20M399 546h20M399 547h20M399 548h20M399 549h20M399 550h20M399 551h20M399 552h20M399 553h20M399 554h20M399 555h20M399 556h20M399 557h20M399 558h20" />
<path stroke="#ffffff" d="M379 459h20M379 460h20M379 461h20M379 462h20M379 463h20M379 464h20M379 465h20M379 466h20M379 467h20M379 468h20M379 469h20M379 470h20M379 471h20M379 472h20M379 473h20M379 474h20M379 475h20M379 476h20M379 477h20M379 478h20" />
<path stroke="#659d65" d="M399 459h20M399 460h20M399 461h20M399 462h20M399 463h20M399 464h20M399 465h20M399 466h20M399 467h20M399 468h20M399 469h20M399 470h20M399 471h20M399 472h20M399 473h20M399 474h20M399 475h20M399 476h20M399 477h20M399 478h20M379 479h20M379 480h20M379 481h20M379 482h20M379 483h20M379 484h20M379 485h20M379 486h20M379 487h20M379 488h20M379 489h20M379 490h20M379 491h20M379 492h20M379 493h20M379 494h20M379 495h20M379 496h20M379 497h20M379 498h20M419 539h20M419 540h20M419 541h20M419 542h20M419 543h20M419 544h20M419 545h20M419 546h20M419 547h20M419 548h20M419 549h20M419 550h20M419 551h20M419 552h20M419 553h20M419 554h20M419 555h20M419 556h20M419 557h20M419 558h20" />
<path stroke="#e44941" d="M339 479h20M339 480h20M339 481h20M339 482h20M339 483h20M339 484h20M339 485h20M339 486h20M339 487h20M339 488h20M339 489h20M339 490h20M339 491h20M339 492h20M339 493h20M339 494h20M339 495h20M339 496h20M339 497h20M339 498h20" />
<path stroke="#fefcfc" d="M359 479h20M359 480h20M359 481h20M359 482h20M359 483h20M359 484h20M359 485h20M359 486h20M359 487h20M359 488h20M359 489h20M359 490h20M359 491h20M359 492h20M359 493h20M359 494h20M359 495h20M359 496h20M359 497h20M359 498h20" />
<path stroke="#bbbcbb" d="M519 499h20M519 500h20M519 501h20M519 502h20M519 503h20M519 504h20M519 505h20M519 506h20M519 507h20M519 508h20M519 509h20M519 510h20M519 511h20M519 512h20M519 513h20M519 514h20M519 515h20M519 516h20M519 517h20M519 518h20" />
<path stroke="#333333" d="M539 499h20M539 500h20M539 501h20M539 502h20M539 503h20M539 504h20M539 505h20M539 506h20M539 507h20M539 508h20M539 509h20M539 510h20M539 511h20M539 512h20M539 513h20M539 514h20M539 515h20M539 516h20M539 517h20M539 518h20" />
<path stroke="#fcfdfc" d="M439 539h20M439 540h20M439 541h20M439 542h20M439 543h20M439 544h20M439 545h20M439 546h20M439 547h20M439 548h20M439 549h20M439 550h20M439 551h20M439 552h20M439 553h20M439 554h20M439 555h20M439 556h20M439 557h20M439 558h20" />
<path stroke="#545454" d="M459 539h20M459 540h20M459 541h20M459 542h20M459 543h20M459 544h20M459 545h20M459 546h20M459 547h20M459 548h20M459 549h20M459 550h20M459 551h20M459 552h20M459 553h20M459 554h20M459 555h20M459 556h20M459 557h20M459 558h20" />
</svg>